<mxfile host="app.diagrams.net" agent="Mozilla/5.0 (Windows NT 10.0; Win64; x64) AppleWebKit/537.36 (KHTML, like Gecko) Chrome/127.0.0.0 Safari/537.36 OPR/113.0.0.0" version="24.8.0">
  <diagram name="PÃ¡gina-1" id="j-V0Lmk4AzPDXSxEmTs3">
    <mxGraphModel dx="796" dy="436" grid="1" gridSize="10" guides="1" tooltips="1" connect="1" arrows="1" fold="1" page="1" pageScale="1" pageWidth="827" pageHeight="1169" math="0" shadow="0">
      <root>
        <mxCell id="0" />
        <mxCell id="1" parent="0" />
        <mxCell id="Jck2U3gK3VLTzZfTKAk5-4" value="" style="rounded=0;whiteSpace=wrap;html=1;fillColor=#BFBFBF;" parent="1" vertex="1">
          <mxGeometry x="50" y="160" width="650" height="350" as="geometry" />
        </mxCell>
        <mxCell id="Jck2U3gK3VLTzZfTKAk5-1" value="" style="rounded=0;whiteSpace=wrap;html=1;strokeWidth=4;fillColor=#8b8484;" parent="1" vertex="1">
          <mxGeometry x="90" y="300" width="120" height="60" as="geometry" />
        </mxCell>
        <mxCell id="Jck2U3gK3VLTzZfTKAk5-2" value="" style="endArrow=classic;html=1;rounded=0;exitX=1;exitY=0.5;exitDx=0;exitDy=0;" parent="1" source="Jck2U3gK3VLTzZfTKAk5-1" target="Jck2U3gK3VLTzZfTKAk5-3" edge="1">
          <mxGeometry width="50" height="50" relative="1" as="geometry">
            <mxPoint x="390" y="420" as="sourcePoint" />
            <mxPoint x="440" y="370" as="targetPoint" />
          </mxGeometry>
        </mxCell>
        <mxCell id="Jck2U3gK3VLTzZfTKAk5-3" value="" style="ellipse;whiteSpace=wrap;html=1;strokeWidth=4;fillColor=#837c7c;" parent="1" vertex="1">
          <mxGeometry x="530" y="240" width="120" height="80" as="geometry" />
        </mxCell>
        <mxCell id="Jck2U3gK3VLTzZfTKAk5-5" value="Texto ejemplo" style="text;html=1;align=center;verticalAlign=middle;whiteSpace=wrap;rounded=0;fontStyle=1;fontSize=17;" parent="1" vertex="1">
          <mxGeometry x="300" y="380" width="170" height="30" as="geometry" />
        </mxCell>
        <mxCell id="CMyQGHSP6j63XQJSHn7Q-1" value="Texto2" style="text;html=1;align=center;verticalAlign=middle;whiteSpace=wrap;rounded=0;" vertex="1" parent="1">
          <mxGeometry x="520" y="380" width="60" height="30" as="geometry" />
        </mxCell>
        <mxCell id="CMyQGHSP6j63XQJSHn7Q-2" value="txt3" style="text;html=1;align=center;verticalAlign=middle;whiteSpace=wrap;rounded=0;fontSize=4;" vertex="1" parent="1">
          <mxGeometry x="320" y="220" width="10" height="10" as="geometry" />
        </mxCell>
      </root>
    </mxGraphModel>
  </diagram>
</mxfile>
